<svg data-v-d3f97b9e="" xmlns="http://www.w3.org/2000/svg" viewBox="0 0 515 90"><!----><!----><!----><g data-v-d3f97b9e="" id="4c742598-b1be-4d20-b614-3cab7b51e379" fill="#1F1E1A" transform="matrix(5.644402573287807,0,0,5.644402573287807,89.46373557848204,6.533397570579766)"><path d="M1.21 12.07L1.21 1.93L2.23 1.93L2.23 6.19L7.39 6.19L7.39 1.93L8.40 1.93L8.40 12.07L7.39 12.07L7.39 7.18L2.23 7.18L2.23 12.07L1.21 12.07ZM14.23 4.22L14.23 4.22L14.23 4.22Q15.96 4.22 17.10 5.47L17.10 5.47L17.10 5.47Q18.16 6.61 18.16 8.18L18.16 8.18L18.16 8.18Q18.17 12.07 18.16 12.13L18.16 12.13L18.16 12.13Q17.50 12.13 17.14 12.13L17.14 12.13L17.14 12.13Q17.14 12.08 17.14 10.42L17.14 10.42L17.14 10.42Q16.34 11.92 14.23 12.09L14.23 12.09L14.23 12.09Q12.51 12.09 11.42 10.92L11.42 10.92L11.42 10.92Q10.33 9.75 10.33 8.18L10.33 8.18L10.33 8.18Q10.33 6.62 11.36 5.48L11.36 5.48L11.36 5.48Q12.50 4.22 14.23 4.22ZM14.23 5.16L14.23 5.16L14.23 5.16Q13.04 5.16 12.17 6.05L12.17 6.05L12.17 6.05Q11.31 6.94 11.31 8.20L11.31 8.20L11.31 8.20Q11.31 9.01 11.75 9.76L11.75 9.76L11.75 9.76Q12.20 10.51 13.25 11.03L13.25 11.03L13.25 11.03Q15.89 11.62 17.00 8.63L17.00 8.63L17.00 8.63Q17.06 7.68 16.80 6.80L16.80 6.80L16.80 6.80Q16.60 6.41 16.27 6.05L16.27 6.05L16.27 6.05Q15.43 5.16 14.23 5.16ZM20.02 12.09L20.02 9.24L20.01 8.44L20.01 8.44Q19.99 7.85 20.06 7.44L20.06 7.44L20.06 7.44Q20.21 6.15 20.71 5.55L20.71 5.55L20.71 5.55Q21.21 5.02 21.72 4.74L21.72 4.74L21.72 4.74Q22.57 4.38 23.65 4.40L23.65 4.40L23.65 4.40Q24.50 4.40 25.22 4.82L25.22 4.82L25.22 4.82Q25.94 5.25 26.25 5.97L26.25 5.97L26.25 5.97Q26.56 6.69 26.56 8.23L26.56 8.23L26.56 12.09L25.60 12.09L25.60 8.51L25.60 8.51Q25.60 7.21 25.49 6.77L25.49 6.77L25.49 6.77Q25.32 6.03 24.81 5.72L24.81 5.72L24.81 5.72Q24.31 5.41 23.32 5.41L23.32 5.41L23.32 5.41Q22.44 5.41 21.76 5.91L21.76 5.91L21.76 5.91Q21.08 6.42 21.12 7.29L21.12 7.29L21.12 7.29Q20.99 7.85 20.99 9.34L20.99 9.34L20.99 12.09L20.02 12.09ZM28.01 5.35L28.01 4.50L33.51 4.50L29.26 11.23L33.37 11.23L33.37 12.09L27.60 12.09L31.84 5.35L28.01 5.35ZM34.95 1.50L34.95 1.50L34.95 1.50Q35.27 1.50 35.51 1.74L35.51 1.74L35.51 1.74Q35.75 1.97 35.75 2.30L35.75 2.30L35.75 2.30Q35.75 2.63 35.51 2.86L35.51 2.86L35.51 2.86Q35.27 3.10 34.95 3.10L34.95 3.10L34.95 3.10Q34.62 3.10 34.38 2.86L34.38 2.86L34.38 2.86Q34.15 2.63 34.15 2.30L34.15 2.30L34.15 2.30Q34.15 1.97 34.38 1.74L34.38 1.74L34.38 1.74Q34.62 1.50 34.95 1.50ZM34.47 12.09L34.47 4.59L35.43 4.59L35.43 12.09L34.47 12.09ZM41.32 12.07L41.32 1.93L42.34 1.93L42.34 6.19L47.50 6.19L47.50 1.93L48.51 1.93L48.51 12.07L47.50 12.07L47.50 7.18L42.34 7.18L42.34 12.07L41.32 12.07ZM54.35 4.22L54.35 4.22L54.35 4.22Q56.08 4.22 57.22 5.47L57.22 5.47L57.22 5.47Q58.27 6.61 58.27 8.18L58.27 8.18L58.27 8.18Q58.28 12.07 58.27 12.13L58.27 12.13L58.27 12.13Q57.61 12.13 57.25 12.13L57.25 12.13L57.25 12.13Q57.25 12.08 57.25 10.42L57.25 10.42L57.25 10.42Q56.45 11.92 54.35 12.09L54.35 12.09L54.35 12.09Q52.62 12.09 51.53 10.92L51.53 10.92L51.53 10.92Q50.44 9.75 50.44 8.18L50.44 8.18L50.44 8.18Q50.44 6.62 51.47 5.48L51.47 5.48L51.47 5.48Q52.62 4.22 54.35 4.22ZM54.35 5.16L54.35 5.16L54.35 5.16Q53.15 5.16 52.29 6.05L52.29 6.05L52.29 6.05Q51.43 6.94 51.43 8.20L51.43 8.20L51.43 8.20Q51.43 9.01 51.87 9.76L51.87 9.76L51.87 9.76Q52.31 10.51 53.36 11.03L53.36 11.03L53.36 11.03Q56 11.62 57.11 8.63L57.11 8.63L57.11 8.63Q57.18 7.68 56.91 6.80L56.91 6.80L56.91 6.80Q56.72 6.41 56.38 6.05L56.38 6.05L56.38 6.05Q55.54 5.16 54.35 5.16ZM67.42 5.97L67.42 5.97L66.65 6.45L66.65 6.45Q65.66 5.12 63.94 5.12L63.94 5.12L63.94 5.12Q62.57 5.12 61.66 6.00L61.66 6.00L61.66 6.00Q60.76 6.88 60.76 8.15L60.76 8.15L60.76 8.15Q60.76 8.97 61.17 9.70L61.17 9.70L61.17 9.70Q61.59 10.42 62.32 10.82L62.32 10.82L62.32 10.82Q63.04 11.22 63.94 11.22L63.94 11.22L63.94 11.22Q65.60 11.22 66.65 9.91L66.65 9.91L67.42 10.40L67.42 10.40Q66.88 11.21 65.97 11.65L65.97 11.65L65.97 11.65Q65.06 12.09 63.90 12.09L63.90 12.09L63.90 12.09Q62.13 12.09 60.96 10.96L60.96 10.96L60.96 10.96Q59.79 9.84 59.79 8.22L59.79 8.22L59.79 8.22Q59.79 7.13 60.34 6.20L60.34 6.20L60.34 6.20Q60.89 5.26 61.84 4.74L61.84 4.74L61.84 4.74Q62.79 4.22 63.98 4.22L63.98 4.22L63.98 4.22Q64.72 4.22 65.42 4.44L65.42 4.44L65.42 4.44Q66.11 4.67 66.60 5.03L66.60 5.03L66.60 5.03Q67.08 5.40 67.42 5.97ZM69.25 12.09L69.25 1.69L70.22 1.69L70.22 7.61L73.68 4.59L75.11 4.59L71.97 7.44L75.35 12.09L73.98 12.09L71.03 8.05L70.22 8.72L70.22 12.09L69.25 12.09Z"></path></g><linearGradient data-v-d3f97b9e="" gradientTransform="rotate(25)" id="3babdd34-7c7f-4ba5-b88a-a248e9c00dfe" x1="0%" y1="0%" x2="100%" y2="0%"><stop data-v-d3f97b9e="" offset="0%" style="stop-color: rgb(9, 120, 166); stop-opacity: 1;"></stop><stop data-v-d3f97b9e="" offset="100%" style="stop-color: rgb(251, 148, 71); stop-opacity: 1;"></stop></linearGradient><g data-v-d3f97b9e="" id="845dc643-c6df-47c3-8f57-c5379a00b50f" transform="matrix(1.2338233317627025,0,0,1.2338233317627025,-22.60878768447833,-16.16316200354295)" stroke="none" fill="url(#3babdd34-7c7f-4ba5-b88a-a248e9c00dfe)"><path d="M19.083 40.856c0 8.441 4.116 16.589 11.057 21.984v21.74c0 1.045.847 1.892 1.892 1.892h25.226a1.893 1.893 0 0 0 1.892-1.892v-8.198h5.213c5.21 0 9.292-4.155 9.292-9.459V55.57h5.371a1.892 1.892 0 0 0 1.707-2.708l-7.077-14.791C72.255 24.28 60.375 13.528 46.455 13.528c-15.094 0-27.372 12.26-27.372 27.328zm3.784 0c0-12.982 10.581-23.543 23.586-23.543 12.094 0 22.401 9.417 23.465 21.439.02.226.08.446.178.65l5.926 12.385h-4.261a1.893 1.893 0 0 0-1.892 1.892v13.243c0 3.183-2.419 5.676-5.508 5.676h-7.104a1.892 1.892 0 0 0-1.892 1.892v8.198H33.924V61.895c0-.606-.29-1.175-.78-1.531-6.435-4.67-10.277-11.963-10.277-19.508z"></path><path d="M45.234 20.255c5.074 0 9.839 1.982 13.417 5.583a1.892 1.892 0 0 1-.004 2.671L34.569 52.587a1.89 1.89 0 0 1-2.671.005 18.788 18.788 0 0 1-5.583-13.418c0-10.432 8.487-18.919 18.919-18.919z"></path></g><!----></svg>